<svg width="122" height="122" viewBox="0 0 122 122" fill="none" xmlns="http://www.w3.org/2000/svg">
<g opacity="0.5" clip-path="url(#clip0_145_53)">
<path fill-rule="evenodd" clip-rule="evenodd" d="M23.0193 75.6891C23.3501 74.6295 23.6298 73.7151 23.775 73.231C24.6517 70.2835 27.7176 63.2267 28.1774 57.6007C28.5297 53.3085 27.3707 49.8339 23.4147 48.8604C19.819 47.9756 16.1884 50.162 12.972 54.1018C6.04968 62.5813 0.800151 79.083 0.501636 84.4777C0.469364 85.0667 0.918478 85.5696 1.50744 85.6019C2.09371 85.6341 2.5966 85.185 2.62887 84.5961C2.91662 79.4191 7.97796 63.5898 14.6233 55.4492C17.2212 52.2677 20.0019 50.2158 22.9063 50.9311C25.7732 51.6357 26.3084 54.3143 26.0529 57.4258C25.6065 62.9013 22.5863 69.7537 21.7311 72.6232C21.196 74.4223 18.9611 81.2263 18.91 81.8557C18.8455 82.6436 19.4076 82.9072 19.5985 82.9798C19.7464 83.0362 20.5021 83.2702 20.9727 82.4231C27.6907 70.348 46.3573 56.4684 66.2421 50.9365C85.9522 45.453 106.921 48.2095 118.506 69.4901C118.789 70.0065 119.437 70.1974 119.953 69.9177C120.47 69.6353 120.661 68.9872 120.378 68.4709C108.239 46.1737 86.3206 43.1374 65.672 48.8818C48.2694 53.7226 31.8134 64.8296 23.0193 75.6891Z" fill="#AE6E5F"/>
<path fill-rule="evenodd" clip-rule="evenodd" d="M118.691 67.9571C116.365 67.0051 114.079 65.9831 111.677 65.2113C105.279 63.154 98.1955 62.3713 91.5556 63.5546C90.9747 63.6595 90.59 64.2135 90.6922 64.7917C90.7971 65.3726 91.3511 65.7572 91.9293 65.655C98.2304 64.5282 104.954 65.2892 111.023 67.2417C113.772 68.1265 116.37 69.3447 119.051 70.4016C119.186 70.4527 120.337 70.9476 120.608 70.9853C121.24 71.0767 121.56 70.711 121.687 70.5227C121.794 70.3667 121.886 70.1542 121.894 69.8692C121.899 69.6352 121.805 69.1888 121.552 68.6186C120.748 66.7899 118.261 62.7936 117.922 62.0943C114.036 54.0802 111.766 45.9719 109.162 37.4951C108.988 36.933 108.391 36.6157 107.829 36.7878C107.267 36.9599 106.952 37.557 107.124 38.1191C109.759 46.7034 112.07 54.9111 116.004 63.0221C116.235 63.5035 117.663 66.0988 118.691 67.9571Z" fill="#AE6E5F"/>
</g>
<defs>
<clipPath id="clip0_145_53">
<rect width="121.5" height="121.5" fill="white" transform="translate(0.5 0.5)"/>
</clipPath>
</defs>
</svg>
